<svg xmlns="http://www.w3.org/2000/svg" width="22.971" height="16.914" viewBox="0 0 22.971 16.914">
  <path id="Path_8779" data-name="Path 8779" d="M12.021,6.368V7.9h5.863c.624,0,1.793-.156,2.163.144.425.292.261,1.751.24,2.448a10.869,10.869,0,0,1,2.355.1c.381.57.426,5.448.048,6.1a21.588,21.588,0,0,1-5.863.048c-.438-.621-.39-5.64.048-6.191l2.259-.048V9.056H12.021V10.5a10.869,10.869,0,0,1,2.355.1c.381.57.426,5.448.048,6.1a22.542,22.542,0,0,1-5.863.048c-.429-.638-.394-4.882-.192-5.951.6-.415,1.675-.116,2.547-.336V10.4l-.048-1.344H3.8V10.5c.641-.018,1.928-.162,2.307.144.338.239.346,5.11.192,5.9-.477.336-5.464.463-6.151.048-.166-.586-.282-5.454,0-5.855.3-.425,1.8-.254,2.5-.24-.017-.628-.174-1.995.144-2.352.294-.4,1.444-.24,2.114-.24h6.007V6.368a10.869,10.869,0,0,1-2.355-.1C8.18,5.7,8.135.824,8.513.177c.795-.254,5.424-.254,6.007.1.166.586.282,5.454,0,5.855C14.222,6.553,12.725,6.382,12.021,6.368Z" transform="translate(0.019 0.003)" fill="#0f7076" fill-rule="evenodd"/>
</svg>
