<svg xmlns="http://www.w3.org/2000/svg" width="22.15" height="23.588" viewBox="0 0 22.15 23.588">
  <path id="Path_8786" data-name="Path 8786" d="M20.334,13.408c.026,2.118.43,9.718-.543,10.53-1.014.845-4.379.429-6.114.408.036-1.351.322-6.432-.2-7.133-.271-.361-.783-.338-1.427-.34a2.8,2.8,0,0,0-1.7.34c-.547,1.867-.212,4.9-.2,7.133-1.745.026-5.264.45-6.182-.476-.61-.615-.817-8.957-.408-10.462a5.107,5.107,0,0,1-2.514-.272C.227,10.686,3.357,8.782,4.776,7.362c1.139-1.139,5.59-6.208,6.861-6.454C13.13.621,14.215,2.535,14.9,3.218l7.812,7.744a1.964,1.964,0,0,1-.2,2.446Z" transform="translate(-0.907 -0.879)" fill="#555" fill-rule="evenodd"/>
</svg>
